<mxfile host="app.diagrams.net" agent="Mozilla/5.0 (Windows NT 10.0; Win64; x64) AppleWebKit/537.36 (KHTML, like Gecko) Chrome/131.0.0.0 Safari/537.36" version="25.0.3">
  <diagram name="Page-1" id="Bwvg4YaSC2n2iVwdc3Kx">
    <mxGraphModel dx="4780" dy="2487" grid="1" gridSize="10" guides="1" tooltips="1" connect="1" arrows="1" fold="1" page="1" pageScale="1" pageWidth="850" pageHeight="1100" math="0" shadow="0">
      <root>
        <mxCell id="0" />
        <mxCell id="1" parent="0" />
        <mxCell id="w2a9FeAwqZRVmJGgQtcL-7" style="edgeStyle=orthogonalEdgeStyle;rounded=0;orthogonalLoop=1;jettySize=auto;html=1;entryX=0.5;entryY=0;entryDx=0;entryDy=0;" edge="1" parent="1" source="w2a9FeAwqZRVmJGgQtcL-1" target="w2a9FeAwqZRVmJGgQtcL-3">
          <mxGeometry relative="1" as="geometry" />
        </mxCell>
        <mxCell id="w2a9FeAwqZRVmJGgQtcL-1" value="&lt;font style=&quot;font-size: 24px;&quot;&gt;start&lt;/font&gt;" style="strokeWidth=2;html=1;shape=mxgraph.flowchart.start_1;whiteSpace=wrap;" vertex="1" parent="1">
          <mxGeometry x="375" y="40" width="100" height="60" as="geometry" />
        </mxCell>
        <mxCell id="w2a9FeAwqZRVmJGgQtcL-2" value="&lt;font style=&quot;font-size: 24px;&quot;&gt;end&lt;/font&gt;" style="strokeWidth=2;html=1;shape=mxgraph.flowchart.start_1;whiteSpace=wrap;" vertex="1" parent="1">
          <mxGeometry x="375" y="1790" width="100" height="60" as="geometry" />
        </mxCell>
        <mxCell id="w2a9FeAwqZRVmJGgQtcL-8" style="edgeStyle=orthogonalEdgeStyle;rounded=0;orthogonalLoop=1;jettySize=auto;html=1;entryX=0.5;entryY=0;entryDx=0;entryDy=0;" edge="1" parent="1" source="w2a9FeAwqZRVmJGgQtcL-3" target="w2a9FeAwqZRVmJGgQtcL-5">
          <mxGeometry relative="1" as="geometry" />
        </mxCell>
        <mxCell id="w2a9FeAwqZRVmJGgQtcL-3" value="input size" style="shape=parallelogram;perimeter=parallelogramPerimeter;whiteSpace=wrap;html=1;fixedSize=1;" vertex="1" parent="1">
          <mxGeometry x="349" y="150" width="152" height="30" as="geometry" />
        </mxCell>
        <mxCell id="w2a9FeAwqZRVmJGgQtcL-9" style="edgeStyle=orthogonalEdgeStyle;rounded=0;orthogonalLoop=1;jettySize=auto;html=1;entryX=0.5;entryY=0;entryDx=0;entryDy=0;" edge="1" parent="1" source="w2a9FeAwqZRVmJGgQtcL-5" target="w2a9FeAwqZRVmJGgQtcL-6">
          <mxGeometry relative="1" as="geometry" />
        </mxCell>
        <mxCell id="w2a9FeAwqZRVmJGgQtcL-14" style="edgeStyle=orthogonalEdgeStyle;rounded=0;orthogonalLoop=1;jettySize=auto;html=1;entryX=0.5;entryY=0;entryDx=0;entryDy=0;" edge="1" parent="1" source="w2a9FeAwqZRVmJGgQtcL-5" target="w2a9FeAwqZRVmJGgQtcL-13">
          <mxGeometry relative="1" as="geometry" />
        </mxCell>
        <mxCell id="w2a9FeAwqZRVmJGgQtcL-5" value="for (i &amp;lt; size, i++)" style="rhombus;whiteSpace=wrap;html=1;" vertex="1" parent="1">
          <mxGeometry x="354" y="240" width="142" height="70" as="geometry" />
        </mxCell>
        <mxCell id="w2a9FeAwqZRVmJGgQtcL-11" style="edgeStyle=orthogonalEdgeStyle;rounded=0;orthogonalLoop=1;jettySize=auto;html=1;entryX=0.5;entryY=0;entryDx=0;entryDy=0;" edge="1" parent="1" source="w2a9FeAwqZRVmJGgQtcL-6" target="w2a9FeAwqZRVmJGgQtcL-10">
          <mxGeometry relative="1" as="geometry" />
        </mxCell>
        <mxCell id="w2a9FeAwqZRVmJGgQtcL-6" value="for (j &amp;lt; size, j++)" style="rhombus;whiteSpace=wrap;html=1;" vertex="1" parent="1">
          <mxGeometry x="518" y="320" width="142" height="70" as="geometry" />
        </mxCell>
        <mxCell id="w2a9FeAwqZRVmJGgQtcL-12" style="edgeStyle=orthogonalEdgeStyle;rounded=0;orthogonalLoop=1;jettySize=auto;html=1;entryX=1;entryY=1;entryDx=0;entryDy=0;" edge="1" parent="1" source="w2a9FeAwqZRVmJGgQtcL-10" target="w2a9FeAwqZRVmJGgQtcL-5">
          <mxGeometry relative="1" as="geometry" />
        </mxCell>
        <mxCell id="w2a9FeAwqZRVmJGgQtcL-10" value="input matrix[i][j]" style="shape=parallelogram;perimeter=parallelogramPerimeter;whiteSpace=wrap;html=1;fixedSize=1;" vertex="1" parent="1">
          <mxGeometry x="513" y="420" width="152" height="30" as="geometry" />
        </mxCell>
        <mxCell id="w2a9FeAwqZRVmJGgQtcL-17" style="edgeStyle=orthogonalEdgeStyle;rounded=0;orthogonalLoop=1;jettySize=auto;html=1;entryX=0.5;entryY=0;entryDx=0;entryDy=0;" edge="1" parent="1" source="w2a9FeAwqZRVmJGgQtcL-13" target="w2a9FeAwqZRVmJGgQtcL-15">
          <mxGeometry relative="1" as="geometry" />
        </mxCell>
        <mxCell id="w2a9FeAwqZRVmJGgQtcL-13" value="input direction" style="shape=parallelogram;perimeter=parallelogramPerimeter;whiteSpace=wrap;html=1;fixedSize=1;" vertex="1" parent="1">
          <mxGeometry x="349" y="480" width="152" height="30" as="geometry" />
        </mxCell>
        <mxCell id="w2a9FeAwqZRVmJGgQtcL-18" style="edgeStyle=orthogonalEdgeStyle;rounded=0;orthogonalLoop=1;jettySize=auto;html=1;entryX=0.5;entryY=0;entryDx=0;entryDy=0;" edge="1" parent="1" source="w2a9FeAwqZRVmJGgQtcL-15" target="w2a9FeAwqZRVmJGgQtcL-16">
          <mxGeometry relative="1" as="geometry" />
        </mxCell>
        <mxCell id="w2a9FeAwqZRVmJGgQtcL-27" style="edgeStyle=orthogonalEdgeStyle;rounded=0;orthogonalLoop=1;jettySize=auto;html=1;entryX=0.5;entryY=0;entryDx=0;entryDy=0;" edge="1" parent="1" source="w2a9FeAwqZRVmJGgQtcL-15" target="w2a9FeAwqZRVmJGgQtcL-22">
          <mxGeometry relative="1" as="geometry" />
        </mxCell>
        <mxCell id="w2a9FeAwqZRVmJGgQtcL-15" value="for (i &amp;lt; size, i++)" style="rhombus;whiteSpace=wrap;html=1;" vertex="1" parent="1">
          <mxGeometry x="354" y="570" width="142" height="70" as="geometry" />
        </mxCell>
        <mxCell id="w2a9FeAwqZRVmJGgQtcL-20" style="edgeStyle=orthogonalEdgeStyle;rounded=0;orthogonalLoop=1;jettySize=auto;html=1;entryX=0.5;entryY=0;entryDx=0;entryDy=0;" edge="1" parent="1" source="w2a9FeAwqZRVmJGgQtcL-16" target="w2a9FeAwqZRVmJGgQtcL-19">
          <mxGeometry relative="1" as="geometry" />
        </mxCell>
        <mxCell id="w2a9FeAwqZRVmJGgQtcL-16" value="for (j &amp;lt; size, j++)" style="rhombus;whiteSpace=wrap;html=1;" vertex="1" parent="1">
          <mxGeometry x="523" y="640" width="142" height="70" as="geometry" />
        </mxCell>
        <mxCell id="w2a9FeAwqZRVmJGgQtcL-21" style="edgeStyle=orthogonalEdgeStyle;rounded=0;orthogonalLoop=1;jettySize=auto;html=1;entryX=1;entryY=1;entryDx=0;entryDy=0;" edge="1" parent="1" source="w2a9FeAwqZRVmJGgQtcL-19" target="w2a9FeAwqZRVmJGgQtcL-15">
          <mxGeometry relative="1" as="geometry" />
        </mxCell>
        <mxCell id="w2a9FeAwqZRVmJGgQtcL-19" value="output matrix[i][j]" style="shape=parallelogram;perimeter=parallelogramPerimeter;whiteSpace=wrap;html=1;fixedSize=1;" vertex="1" parent="1">
          <mxGeometry x="518" y="750" width="152" height="30" as="geometry" />
        </mxCell>
        <mxCell id="w2a9FeAwqZRVmJGgQtcL-28" style="edgeStyle=orthogonalEdgeStyle;rounded=0;orthogonalLoop=1;jettySize=auto;html=1;entryX=0.5;entryY=0;entryDx=0;entryDy=0;" edge="1" parent="1" source="w2a9FeAwqZRVmJGgQtcL-22" target="w2a9FeAwqZRVmJGgQtcL-26">
          <mxGeometry relative="1" as="geometry" />
        </mxCell>
        <mxCell id="w2a9FeAwqZRVmJGgQtcL-47" style="edgeStyle=orthogonalEdgeStyle;rounded=0;orthogonalLoop=1;jettySize=auto;html=1;entryX=0.5;entryY=0;entryDx=0;entryDy=0;" edge="1" parent="1" source="w2a9FeAwqZRVmJGgQtcL-22" target="w2a9FeAwqZRVmJGgQtcL-42">
          <mxGeometry relative="1" as="geometry" />
        </mxCell>
        <mxCell id="w2a9FeAwqZRVmJGgQtcL-22" value="if (direction == 1)" style="rhombus;whiteSpace=wrap;html=1;" vertex="1" parent="1">
          <mxGeometry x="354" y="830" width="142" height="70" as="geometry" />
        </mxCell>
        <mxCell id="w2a9FeAwqZRVmJGgQtcL-30" style="edgeStyle=orthogonalEdgeStyle;rounded=0;orthogonalLoop=1;jettySize=auto;html=1;entryX=0.5;entryY=0;entryDx=0;entryDy=0;" edge="1" parent="1" source="w2a9FeAwqZRVmJGgQtcL-24" target="w2a9FeAwqZRVmJGgQtcL-25">
          <mxGeometry relative="1" as="geometry" />
        </mxCell>
        <mxCell id="w2a9FeAwqZRVmJGgQtcL-43" style="edgeStyle=orthogonalEdgeStyle;rounded=0;orthogonalLoop=1;jettySize=auto;html=1;entryX=1;entryY=1;entryDx=0;entryDy=0;" edge="1" parent="1" source="w2a9FeAwqZRVmJGgQtcL-24" target="w2a9FeAwqZRVmJGgQtcL-22">
          <mxGeometry relative="1" as="geometry" />
        </mxCell>
        <mxCell id="w2a9FeAwqZRVmJGgQtcL-24" value="for (i &amp;lt; size, i++)" style="rhombus;whiteSpace=wrap;html=1;" vertex="1" parent="1">
          <mxGeometry x="528" y="990" width="142" height="70" as="geometry" />
        </mxCell>
        <mxCell id="w2a9FeAwqZRVmJGgQtcL-31" style="edgeStyle=orthogonalEdgeStyle;rounded=0;orthogonalLoop=1;jettySize=auto;html=1;entryX=1;entryY=1;entryDx=0;entryDy=0;" edge="1" parent="1" source="w2a9FeAwqZRVmJGgQtcL-25" target="w2a9FeAwqZRVmJGgQtcL-24">
          <mxGeometry relative="1" as="geometry" />
        </mxCell>
        <mxCell id="w2a9FeAwqZRVmJGgQtcL-33" style="edgeStyle=orthogonalEdgeStyle;rounded=0;orthogonalLoop=1;jettySize=auto;html=1;entryX=0.5;entryY=0;entryDx=0;entryDy=0;" edge="1" parent="1" source="w2a9FeAwqZRVmJGgQtcL-25" target="w2a9FeAwqZRVmJGgQtcL-32">
          <mxGeometry relative="1" as="geometry" />
        </mxCell>
        <mxCell id="w2a9FeAwqZRVmJGgQtcL-25" value="for (j &amp;lt; size, j++)" style="rhombus;whiteSpace=wrap;html=1;" vertex="1" parent="1">
          <mxGeometry x="690" y="1070" width="142" height="70" as="geometry" />
        </mxCell>
        <mxCell id="w2a9FeAwqZRVmJGgQtcL-29" style="edgeStyle=orthogonalEdgeStyle;rounded=0;orthogonalLoop=1;jettySize=auto;html=1;entryX=0.5;entryY=0;entryDx=0;entryDy=0;" edge="1" parent="1" source="w2a9FeAwqZRVmJGgQtcL-26" target="w2a9FeAwqZRVmJGgQtcL-24">
          <mxGeometry relative="1" as="geometry" />
        </mxCell>
        <mxCell id="w2a9FeAwqZRVmJGgQtcL-26" value="output &quot;Left Matrix =&quot;" style="shape=parallelogram;perimeter=parallelogramPerimeter;whiteSpace=wrap;html=1;fixedSize=1;" vertex="1" parent="1">
          <mxGeometry x="523" y="920" width="152" height="30" as="geometry" />
        </mxCell>
        <mxCell id="w2a9FeAwqZRVmJGgQtcL-38" style="edgeStyle=orthogonalEdgeStyle;rounded=0;orthogonalLoop=1;jettySize=auto;html=1;entryX=0.5;entryY=0;entryDx=0;entryDy=0;" edge="1" parent="1" source="w2a9FeAwqZRVmJGgQtcL-32" target="w2a9FeAwqZRVmJGgQtcL-37">
          <mxGeometry relative="1" as="geometry" />
        </mxCell>
        <mxCell id="w2a9FeAwqZRVmJGgQtcL-39" style="edgeStyle=orthogonalEdgeStyle;rounded=0;orthogonalLoop=1;jettySize=auto;html=1;entryX=0.5;entryY=0;entryDx=0;entryDy=0;" edge="1" parent="1" source="w2a9FeAwqZRVmJGgQtcL-32" target="w2a9FeAwqZRVmJGgQtcL-35">
          <mxGeometry relative="1" as="geometry" />
        </mxCell>
        <mxCell id="w2a9FeAwqZRVmJGgQtcL-32" value="if ( i &amp;gt; j)" style="rhombus;whiteSpace=wrap;html=1;" vertex="1" parent="1">
          <mxGeometry x="850" y="1170" width="142" height="70" as="geometry" />
        </mxCell>
        <mxCell id="w2a9FeAwqZRVmJGgQtcL-41" style="edgeStyle=orthogonalEdgeStyle;rounded=0;orthogonalLoop=1;jettySize=auto;html=1;entryX=1;entryY=1;entryDx=0;entryDy=0;" edge="1" parent="1" source="w2a9FeAwqZRVmJGgQtcL-35" target="w2a9FeAwqZRVmJGgQtcL-25">
          <mxGeometry relative="1" as="geometry" />
        </mxCell>
        <mxCell id="w2a9FeAwqZRVmJGgQtcL-35" value="output&lt;br&gt;&quot;0 &quot;" style="shape=parallelogram;perimeter=parallelogramPerimeter;whiteSpace=wrap;html=1;fixedSize=1;" vertex="1" parent="1">
          <mxGeometry x="866" y="1360" width="110" height="30" as="geometry" />
        </mxCell>
        <mxCell id="w2a9FeAwqZRVmJGgQtcL-40" style="edgeStyle=orthogonalEdgeStyle;rounded=0;orthogonalLoop=1;jettySize=auto;html=1;entryX=1;entryY=1;entryDx=0;entryDy=0;" edge="1" parent="1" source="w2a9FeAwqZRVmJGgQtcL-37" target="w2a9FeAwqZRVmJGgQtcL-25">
          <mxGeometry relative="1" as="geometry" />
        </mxCell>
        <mxCell id="w2a9FeAwqZRVmJGgQtcL-37" value="output matrix[i][j]" style="shape=parallelogram;perimeter=parallelogramPerimeter;whiteSpace=wrap;html=1;fixedSize=1;" vertex="1" parent="1">
          <mxGeometry x="1010" y="1270" width="130" height="30" as="geometry" />
        </mxCell>
        <mxCell id="w2a9FeAwqZRVmJGgQtcL-48" style="edgeStyle=orthogonalEdgeStyle;rounded=0;orthogonalLoop=1;jettySize=auto;html=1;entryX=0.5;entryY=0;entryDx=0;entryDy=0;" edge="1" parent="1" source="w2a9FeAwqZRVmJGgQtcL-42" target="w2a9FeAwqZRVmJGgQtcL-46">
          <mxGeometry relative="1" as="geometry" />
        </mxCell>
        <mxCell id="w2a9FeAwqZRVmJGgQtcL-42" value="else if ( direction == -1)" style="rhombus;whiteSpace=wrap;html=1;" vertex="1" parent="1">
          <mxGeometry x="342" y="1280" width="166" height="90" as="geometry" />
        </mxCell>
        <mxCell id="w2a9FeAwqZRVmJGgQtcL-50" style="edgeStyle=orthogonalEdgeStyle;rounded=0;orthogonalLoop=1;jettySize=auto;html=1;entryX=0.5;entryY=0;entryDx=0;entryDy=0;" edge="1" parent="1" source="w2a9FeAwqZRVmJGgQtcL-44" target="w2a9FeAwqZRVmJGgQtcL-45">
          <mxGeometry relative="1" as="geometry" />
        </mxCell>
        <mxCell id="w2a9FeAwqZRVmJGgQtcL-60" style="edgeStyle=orthogonalEdgeStyle;rounded=0;orthogonalLoop=1;jettySize=auto;html=1;entryX=1;entryY=1;entryDx=0;entryDy=0;" edge="1" parent="1" source="w2a9FeAwqZRVmJGgQtcL-44" target="w2a9FeAwqZRVmJGgQtcL-42">
          <mxGeometry relative="1" as="geometry" />
        </mxCell>
        <mxCell id="w2a9FeAwqZRVmJGgQtcL-44" value="for (i &amp;lt; size, i++)" style="rhombus;whiteSpace=wrap;html=1;" vertex="1" parent="1">
          <mxGeometry x="533" y="1430" width="142" height="70" as="geometry" />
        </mxCell>
        <mxCell id="w2a9FeAwqZRVmJGgQtcL-54" style="edgeStyle=orthogonalEdgeStyle;rounded=0;orthogonalLoop=1;jettySize=auto;html=1;entryX=0.5;entryY=0;entryDx=0;entryDy=0;" edge="1" parent="1" source="w2a9FeAwqZRVmJGgQtcL-45" target="w2a9FeAwqZRVmJGgQtcL-51">
          <mxGeometry relative="1" as="geometry" />
        </mxCell>
        <mxCell id="w2a9FeAwqZRVmJGgQtcL-59" style="edgeStyle=orthogonalEdgeStyle;rounded=0;orthogonalLoop=1;jettySize=auto;html=1;entryX=1;entryY=1;entryDx=0;entryDy=0;" edge="1" parent="1" source="w2a9FeAwqZRVmJGgQtcL-45" target="w2a9FeAwqZRVmJGgQtcL-44">
          <mxGeometry relative="1" as="geometry" />
        </mxCell>
        <mxCell id="w2a9FeAwqZRVmJGgQtcL-45" value="for (j &amp;lt; size, j++)" style="rhombus;whiteSpace=wrap;html=1;" vertex="1" parent="1">
          <mxGeometry x="680" y="1520" width="142" height="70" as="geometry" />
        </mxCell>
        <mxCell id="w2a9FeAwqZRVmJGgQtcL-49" style="edgeStyle=orthogonalEdgeStyle;rounded=0;orthogonalLoop=1;jettySize=auto;html=1;entryX=0.5;entryY=0;entryDx=0;entryDy=0;" edge="1" parent="1" source="w2a9FeAwqZRVmJGgQtcL-46" target="w2a9FeAwqZRVmJGgQtcL-44">
          <mxGeometry relative="1" as="geometry" />
        </mxCell>
        <mxCell id="w2a9FeAwqZRVmJGgQtcL-46" value="output &quot;Right Matrix =&quot;" style="shape=parallelogram;perimeter=parallelogramPerimeter;whiteSpace=wrap;html=1;fixedSize=1;" vertex="1" parent="1">
          <mxGeometry x="528" y="1360" width="152" height="30" as="geometry" />
        </mxCell>
        <mxCell id="w2a9FeAwqZRVmJGgQtcL-55" style="edgeStyle=orthogonalEdgeStyle;rounded=0;orthogonalLoop=1;jettySize=auto;html=1;" edge="1" parent="1" source="w2a9FeAwqZRVmJGgQtcL-51" target="w2a9FeAwqZRVmJGgQtcL-53">
          <mxGeometry relative="1" as="geometry" />
        </mxCell>
        <mxCell id="w2a9FeAwqZRVmJGgQtcL-56" style="edgeStyle=orthogonalEdgeStyle;rounded=0;orthogonalLoop=1;jettySize=auto;html=1;entryX=0.5;entryY=0;entryDx=0;entryDy=0;" edge="1" parent="1" source="w2a9FeAwqZRVmJGgQtcL-51" target="w2a9FeAwqZRVmJGgQtcL-52">
          <mxGeometry relative="1" as="geometry" />
        </mxCell>
        <mxCell id="w2a9FeAwqZRVmJGgQtcL-51" value="if ( i &amp;gt; j)" style="rhombus;whiteSpace=wrap;html=1;" vertex="1" parent="1">
          <mxGeometry x="834" y="1600" width="142" height="70" as="geometry" />
        </mxCell>
        <mxCell id="w2a9FeAwqZRVmJGgQtcL-57" style="edgeStyle=orthogonalEdgeStyle;rounded=0;orthogonalLoop=1;jettySize=auto;html=1;entryX=1;entryY=1;entryDx=0;entryDy=0;" edge="1" parent="1" source="w2a9FeAwqZRVmJGgQtcL-52" target="w2a9FeAwqZRVmJGgQtcL-45">
          <mxGeometry relative="1" as="geometry" />
        </mxCell>
        <mxCell id="w2a9FeAwqZRVmJGgQtcL-52" value="output&lt;br&gt;&quot;0 &quot;" style="shape=parallelogram;perimeter=parallelogramPerimeter;whiteSpace=wrap;html=1;fixedSize=1;" vertex="1" parent="1">
          <mxGeometry x="850" y="1750" width="110" height="30" as="geometry" />
        </mxCell>
        <mxCell id="w2a9FeAwqZRVmJGgQtcL-58" style="edgeStyle=orthogonalEdgeStyle;rounded=0;orthogonalLoop=1;jettySize=auto;html=1;entryX=1;entryY=1;entryDx=0;entryDy=0;" edge="1" parent="1" source="w2a9FeAwqZRVmJGgQtcL-53" target="w2a9FeAwqZRVmJGgQtcL-45">
          <mxGeometry relative="1" as="geometry" />
        </mxCell>
        <mxCell id="w2a9FeAwqZRVmJGgQtcL-53" value="output matrix[i][j]" style="shape=parallelogram;perimeter=parallelogramPerimeter;whiteSpace=wrap;html=1;fixedSize=1;" vertex="1" parent="1">
          <mxGeometry x="980" y="1690" width="130" height="30" as="geometry" />
        </mxCell>
        <mxCell id="w2a9FeAwqZRVmJGgQtcL-61" style="edgeStyle=orthogonalEdgeStyle;rounded=0;orthogonalLoop=1;jettySize=auto;html=1;entryX=0.5;entryY=0;entryDx=0;entryDy=0;entryPerimeter=0;" edge="1" parent="1" source="w2a9FeAwqZRVmJGgQtcL-42" target="w2a9FeAwqZRVmJGgQtcL-2">
          <mxGeometry relative="1" as="geometry" />
        </mxCell>
      </root>
    </mxGraphModel>
  </diagram>
</mxfile>
